<svg width="1440" height="488" viewBox="0 0 1440 488" fill="none" xmlns="http://www.w3.org/2000/svg">
<g opacity="0.1" clip-path="url(#clip0_1222_22)">
<path d="M291.029 536.71H261.491C243.711 516.146 234.327 494.526 245.725 471.615C255.972 451.033 269.797 431.204 288.369 412.79C293.564 407.649 298.94 402.579 301.96 396.758C311.183 378.97 296.009 363.118 266.166 359.248C238.21 355.63 209.93 356.114 181.795 357.403C162.019 358.299 154.81 363.404 154.09 375.764C153.353 388.231 152.436 400.627 149.794 413.023C144.364 438.423 123.636 450.675 82.0882 449.332C54.4379 448.436 27.0753 447.666 -0.467127 449.672C-8.39546 450.245 -16.5215 449.726 -22.7779 445.857V432.225C-13.3215 426.977 -1.18625 426.977 10.2658 426.475C24.3786 425.848 38.4195 424.935 52.4603 423.914C82.268 421.746 96.2729 414.832 99.473 400.573C103.932 380.798 92.2638 366.467 65.5843 359.66C45.0534 354.412 23.1561 351.94 1.7262 348.555C-7.22688 347.139 -16.3597 346.011 -22.7959 341.371V284.588C28.8731 265.099 98.1426 271.601 135.861 299.474C168.707 323.745 227.585 326.092 266.489 304.722C275.335 299.868 280.081 293.544 279.973 286.648C279.487 258.829 264.548 239.752 224.277 229.309C215.773 227.106 206.802 225.637 198.263 223.488C156.697 213.062 143.16 200.344 156.284 167.026C160.509 156.315 170.846 147.072 182.208 138.456C194.631 129.051 206.353 119.361 215.198 108.416C233.679 85.5054 234.201 62.6487 216.169 39.5592C207.341 28.2562 196.842 17.616 184.725 7.53114C174.478 -0.995341 164.446 -9.64721 157.47 -19.4097C153.785 -24.5686 149.524 -29.8349 154.414 -35.6745H176.563C180.806 -34.0623 184.707 -32.271 186.685 -29.2975C198.928 -10.919 219.063 4.59344 235.891 21.2702C266.543 51.704 266.256 82.711 243.495 114.542C234.075 127.726 221.94 140.032 210.11 152.428C189.291 174.263 195.296 189.453 229.562 203.515C234.686 205.611 239.81 207.706 245.167 209.569C275.766 220.209 297.448 235.453 310.392 255.677C318.716 268.681 327.777 281.597 345.413 291.287C352.856 295.371 360.695 298.811 370.259 300.781C422.072 311.403 485.606 296.572 512.34 267.356C521.688 257.128 529.778 246.488 538.084 235.937C550.183 220.55 567.568 208.1 590.922 198.875C624.846 185.459 655.032 169.839 677.594 148.773C692.552 134.801 713.658 124.018 734.585 113.449C747.583 106.893 758.693 99.4237 767.197 90.521C780.051 77.0864 783.125 63.0786 775.107 47.9961C766.999 32.7523 754.109 18.9953 741.47 5.16666C733.02 -4.07633 725.146 -13.4985 717.685 -23.0281C714.611 -26.9689 709.847 -31.0709 715.582 -35.6924H741.434C742.729 -34.8863 744.652 -34.2773 745.389 -33.3458C767.808 -4.82868 780.603 6.08255 794.5 37C801.152 51.7601 810.65 69.1565 799 82C787.782 94.3598 776.766 104.887 758.5 113.449C732.36 125.702 705.679 141.877 687 158.5C667.799 175.589 641.728 198.696 614.275 210.357C584.252 223.111 562.786 239.967 553.204 261.445C536.79 298.291 497.274 318.873 438.27 327.131C428.094 328.546 418.045 330.427 408.229 332.666C382.79 338.434 371.805 347.677 375.814 363.924C381.945 388.876 370.061 408.974 340.865 426.457C301.96 449.762 289.124 478.655 295.955 511.525C297.681 519.854 300.989 528.936 290.958 536.656L291.029 536.71Z" stroke="white" stroke-miterlimit="10"/>
<path d="M1346.97 -35.6387C1343.09 -25.088 1333.18 -17.3856 1318.21 -11.7968C1282.25 1.58407 1244.41 12.278 1203.65 18.7624C1178.66 22.7391 1157.18 30.0296 1138.71 41.243C1113.36 56.63 1086.81 71.2468 1061.59 86.6877C1025.97 108.488 1015.1 133.512 1035.38 163.068C1054.32 190.707 1029.64 211.719 974.052 218.938C949.009 222.18 923.947 219.887 898.976 222.18C861.743 225.601 835.927 237.585 818.83 257.647C807.899 270.473 793.391 281.543 776.437 291.646C745.731 309.97 740.805 326.808 761.623 349.737C778.756 368.599 804.177 382.41 837.707 390.417C861.186 396.023 883.335 394.447 902.5 385.706C959.742 359.607 1016.59 333.024 1044.98 290.481C1051.59 280.558 1062.77 272.425 1072.9 263.917C1085.66 253.205 1097.24 242.135 1104.11 229.47C1115.23 208.942 1140.46 198.965 1172.89 194.254C1181.25 193.036 1189.57 191.692 1197.99 190.671C1253.05 183.882 1285.7 162.692 1302.21 130.449C1312.18 110.942 1326.39 92.5451 1343.57 74.9727C1354.34 63.9563 1361.3 51.7578 1369.61 39.9711C1389.09 12.278 1391.09 7.31616 1450.36 5.29201V18.9236C1448.03 21.1806 1445.62 23.4377 1441.19 24.2616C1413.65 29.4743 1398.44 42.4073 1391.18 58.1347C1374.5 94.2827 1343.66 126.06 1314.04 158.339C1294.98 179.1 1268.32 193.484 1230.15 199.574C1212.37 202.404 1194.5 205.216 1177.71 210.16C1156.76 216.34 1142.4 225.888 1132.65 238.839C1083.9 303.701 1011.75 356.776 918.051 398.907C888.387 412.252 857.087 413.578 823.971 404.586C787.026 394.554 757.093 378.809 733.434 359.177C702.26 333.311 707.491 292.237 742.98 268.252C761.893 255.48 777.085 241.4 784.348 224.562C793.427 203.515 815.558 192.104 850.237 188.647C877.007 185.978 902.985 181.231 927.184 173.403C944.029 167.958 956.164 160.255 964.003 149.114C978.655 128.281 996.165 108.273 1015.51 88.9088C1024.27 80.1495 1033.97 71.623 1047.53 65.6581C1074.62 53.7282 1099.43 40.2577 1123.47 26.1604C1144.04 14.0872 1168.77 6.85043 1196.14 2.71257C1232.74 -2.84038 1265.78 -12.2088 1290.45 -30.5514C1293.72 -32.9697 1298.77 -33.722 1302.64 -35.567H1346.94L1346.97 -35.6387Z" stroke="white" stroke-miterlimit="10"/>
<path d="M1450.35 225.547C1431.65 229.9 1412.32 227.59 1397.09 222.072C1367.65 211.396 1338.77 211.271 1307.08 216.251C1284.08 219.869 1260.08 221.033 1236.55 223.344C1205.45 226.407 1179.81 235.077 1169.17 254.065C1150.92 286.558 1116.6 312.317 1083.38 339.061C1040.01 373.973 989.388 403.403 929.431 426.977C901.224 438.065 871.038 442.059 838.067 436.864C783.197 428.23 738.81 408.079 693.685 388.375C669.019 377.609 659.167 363.87 660.066 345.868C660.821 330.749 657.189 315.685 650.987 301.175C641.926 279.984 643.598 261.051 670.331 244.625C695.303 229.273 713.371 210.984 729.209 191.621C749.219 167.152 788.825 155.652 822.3 139.924C857.285 123.498 891.138 105.944 923.013 87.2609C952.911 69.7422 952.425 46.5989 943.598 23.7422C939.013 11.9018 948.308 6.6713 963.554 3.28578C983.707 -1.19241 1004.6 -4.29132 1024.12 -10.0234C1043.25 -15.6301 1057.18 -24.0312 1066.37 -35.6387H1243.58C1228.24 -22.025 1204.69 -16.472 1180.14 -15.7018C1143.41 -14.5553 1112.38 -7.35441 1085.44 7.88936C1068.73 17.3652 1046.27 20.2492 1025.83 25.1931C1008.52 29.3847 994.817 36.5677 990.844 46.9213C976.965 83.1409 936.443 105.138 890.149 125.881C857.824 140.372 824.601 153.681 790.317 166.131C763.709 175.804 746.702 189.991 735.735 207.402C726.836 221.517 716.589 235.059 699.258 246.38C674.484 262.555 665.387 281.364 674.448 303.701C679.446 316.007 679.356 329.065 682.754 341.676C687.284 358.496 698.107 372.683 722.144 383.377C755.439 398.191 786.883 414.187 826.417 423.09C866.238 432.046 900.918 427.514 933.746 412.485C995.536 384.201 1049.24 351.17 1095.46 313.087C1120.75 292.237 1139.68 269.72 1156.69 246.255C1168.49 229.99 1189.3 220.55 1217.22 215.982C1247.91 210.966 1279.73 208.172 1307.94 197.98C1326.03 191.442 1339.76 181.554 1358.17 175.266C1376.55 168.997 1394.29 169.624 1412.66 174.227C1425.01 177.308 1435.69 183.309 1450.33 182.396V225.547H1450.35Z" stroke="white" stroke-miterlimit="10"/>
<path d="M1273.12 536.711H1232.51C1229.74 535.206 1226.09 534.723 1222.98 533.612C1207.88 528.226 1193.82 529.259 1180.82 536.711H1136.52C1127.98 531.48 1127.3 524.405 1125.75 517.795C1120.36 494.813 1098.95 481.916 1062.9 475.843C1023.31 469.18 984.12 467.675 944.964 475.431C894.859 485.337 844.467 486.752 792.258 482.793C754.702 479.927 716.499 478.602 678.331 479.39C625.224 480.483 598.491 494.885 591.264 527.163C590.509 530.513 590.508 534.006 586.427 536.711H556.889C540.799 519.873 543.891 498.055 565.519 484.209C591.839 467.335 624.487 458.683 662.565 457.877C706.485 456.963 751.41 468.467 794 473.5C849.678 480.092 900.828 469.484 952.749 456.569C974.556 451.159 997.802 449.046 1020.71 446.341C1042.73 443.744 1059.25 436.99 1069.73 424.684C1072.86 421.012 1077.12 417.645 1079.71 413.811C1102.63 379.759 1145.55 358.013 1196.87 341.318C1238.73 327.705 1271.93 329.496 1307.06 348.842C1328.06 360.413 1350.53 365.106 1378.2 360.234C1392.94 357.637 1408.06 355.666 1423.29 354.287C1432.33 353.463 1441.55 352.012 1450.36 355.04V368.671C1447.33 372.361 1442.13 374.117 1435.8 374.869C1411.5 377.789 1388.86 383.61 1366.69 390.149C1331.62 400.52 1297.64 400.914 1266.79 384.846C1225.37 363.279 1139.07 390.937 1133.48 418.54C1131.2 429.79 1133.09 440.43 1139.06 450.783C1143.96 459.292 1154.48 464.684 1169.69 464.558C1202.5 464.29 1223.71 474.661 1238.65 491.499C1248.94 503.089 1259.56 514.571 1269.97 526.142C1272.9 529.402 1276.43 532.716 1273.15 536.729L1273.12 536.711Z" stroke="white" stroke-miterlimit="10"/>
<path d="M494.093 536.71C469.858 516.576 460.599 494.221 482.82 472.314C504.879 450.568 538.876 436.668 581.214 432.333C601.098 430.308 621.593 430.004 641.045 427.03C664.273 423.466 685.271 426.708 705.191 432.637C752.707 446.806 803.477 454.473 854.948 458.664C885.835 461.172 915.571 451.983 944.893 444.872C1012.8 428.428 1057.97 397.08 1098.12 361.506C1111.64 349.522 1128.22 338.631 1145.2 328.367C1168.13 314.538 1184.81 298.578 1194.86 280.038C1202.88 265.242 1211.65 251.02 1240.87 248.404C1275.4 245.323 1301.43 254.101 1321.44 271.189C1335.04 282.797 1349.04 294.261 1364.05 305.17C1386.43 321.417 1415.15 329.477 1450.31 327.74V345.903C1415.18 357.296 1360.58 353.481 1333.15 336.768C1307.89 321.381 1280.13 307.337 1262.49 287.651C1255.75 280.128 1247.43 280.146 1242.79 287.705C1225.94 315.111 1188.6 331.233 1154.82 349.164C1131.31 361.649 1108.67 374.833 1093.9 391.438C1064.72 424.254 1022.31 444.442 963.482 454.706C919.67 462.336 877.205 473.496 830.786 469.305C790.155 465.632 749.273 462.157 709.488 455.583C661.325 447.612 616.559 453.989 574.059 467.746C531.181 481.611 522.048 496.407 535.64 524.96C537.546 528.972 540.206 532.949 534.687 536.71H494.075H494.093Z" stroke="white" stroke-miterlimit="10"/>
<path d="M623.319 -35.6383H645.468C653.522 -32.0916 655.427 -26.3774 659.257 -21.2365C677.127 2.71291 685.99 28.167 693.757 53.8539C697.64 66.7152 695.231 78.6452 683.401 89.6973C668.839 103.293 656.326 117.588 644.856 132.258C630.474 150.654 608.595 164.949 578.122 172.884C538.552 183.184 508.852 199.288 487.8 222.359C475.287 236.045 456.392 246.559 433.488 253.868C408.013 262.018 388.417 259.976 368.335 247.58C360.911 242.995 354.906 237.746 349.063 232.426C337.359 221.732 324.253 211.862 308.109 203.443C276.144 186.731 262.031 166.221 270.876 139.889C277.888 119.056 287.093 98.6716 300.36 79.1646C317.799 53.5314 312.621 31.4987 280.009 11.8484C264.206 2.31883 249.878 -8.12432 238.732 -19.9826C234.255 -24.7474 228.34 -29.8167 235.657 -35.6383H254.121C284.126 -16.8299 317.368 0.276771 340.667 22.7215C354.169 35.7261 353.072 50.0564 344.083 64.2075C334.699 79.0034 322.941 93.1724 314.779 108.291C306.922 122.854 303.435 137.65 304.639 152.947C305.053 158.321 305.97 163.677 310.644 168.227C332.146 189.149 363.517 203.031 400.354 211.379C421.209 216.108 440.104 208.19 452.095 198.553C479.17 176.843 515.36 164.322 555.541 154.918C587.506 147.43 606.347 132.992 613.844 112.769C626.465 78.7168 632.397 44.2168 631.858 9.28689C631.696 -1.06669 625.889 -10.7396 621.898 -20.6453C619.849 -25.7326 616.217 -30.8915 623.337 -35.6562L623.319 -35.6383Z" stroke="white" stroke-miterlimit="10"/>
<path d="M368.569 -35.6383C372.956 -14.3042 393.505 4.34297 394.745 26.3757C395.914 47.1008 385.774 65.748 372.722 84.1981C367.095 92.1514 360.461 99.9793 356.92 108.309C351.94 120.006 347.913 132.509 364.668 142.289C381.298 151.98 401.577 149.884 420.095 145.514C446.972 139.154 472.069 129.732 499.36 124.359C540.602 116.244 559.281 97.167 572.567 74.3819C591.893 41.2791 596.1 8.80325 560.719 -21.7201C555.056 -26.6103 548.332 -31.0168 542.094 -35.6562H593.781C612.514 -21.326 616.775 -3.64612 617.53 13.3531C619.112 49.0891 607.642 84.019 589.664 118C582.832 130.915 568.809 140.283 547.937 145.03C509.248 153.861 472.159 164.537 436.922 177.864C418.351 184.886 397.047 185.28 376.03 183.095C335.598 178.867 310.842 157.479 315.049 130.61C317.134 117.319 323.534 104.708 333.027 92.7067C338.941 85.2371 344.784 77.7316 350.034 70.0649C372.614 37.1233 364.632 15.9863 320.19 -7.56902C310.392 -12.7637 300.864 -18.1017 292.163 -23.9592C287.344 -27.2014 280.998 -30.2466 283.641 -35.6383H368.551H368.569Z" stroke="white" stroke-miterlimit="10"/>
<path d="M132.283 -35.6387C137.479 -16.9915 156.302 -2.87621 174.046 11.5615C186.307 21.5389 197.31 31.9104 205.454 43.4283C229.167 76.9431 214.659 105.747 174.388 129.983C141.164 149.973 128.094 174.783 121.532 201.67C119.914 208.315 121.388 215.086 124.283 221.84C132.301 240.523 142.98 245.914 174.783 245.986C184.617 246.004 194.469 245.735 204.285 246.058C220.591 246.577 234.938 250.016 241.032 260.083C246.713 269.434 242.704 278.014 230.048 284.606C216.87 291.449 202.631 296.249 184.761 291.628C170.63 287.991 160.868 281.4 152.508 273.679C134.746 257.271 115.168 253.85 83.1129 256.053C47.9478 258.471 12.9984 263.469 -22.7959 261.893V243.729C-12.7821 238.301 0.126147 238.355 12.0097 237.728C54.5278 235.453 80.7398 222.09 92.0121 196.726C96.3628 186.945 103.356 177.595 108.804 167.958C118.242 151.281 133.02 136.503 153.767 124.34C210.434 91.1659 205.274 62.595 165.776 25.4797C158.064 18.225 149.003 11.5257 140.175 4.73672C129.748 -3.2882 121.442 -12.0834 115.941 -21.7921C113.298 -26.4494 110.835 -31.268 117.487 -35.6208H132.247L132.283 -35.6387Z" stroke="white" stroke-miterlimit="10"/>
<path d="M320.568 536.71C320.568 520.839 321.629 504.914 320.298 489.079C318.536 468.014 331.786 450.603 357.531 438.548C392.193 422.301 408.391 400.16 418.98 375.924C426.423 358.872 442.963 347.766 466.927 339.4C486.056 332.719 505.67 326.646 523.253 318.156C543.873 308.196 555.703 295.245 559.443 280.127C566.724 250.696 590.239 228.287 629.503 211.378C653.809 200.917 674.251 187.84 690.431 172.507C712.831 151.263 745.282 136.27 775.575 119.969C801.122 106.23 820.017 89.768 828.61 69.6519C835.316 53.9603 824.116 39.8451 812.016 26.6075C793.643 6.4915 776.06 -13.7858 763.601 -35.6035H782.065C789.993 -14.2515 821.365 11.1278 840.008 29.2018C878.715 66.729 867.713 77.1543 825.518 112.998C808.619 127.364 785.571 137.395 763.601 147.999C741.435 158.693 723.852 171.501 708.535 185.598C691.33 201.433 670.619 214.903 645.827 226.242C610.842 242.256 590.491 263.752 589.502 290.639C588.729 311.901 575.461 328.112 545.851 338.322C497.094 355.107 468.941 368.312 448.5 399.999C438.54 415.458 427.247 441.932 406.5 451.999C364.629 472.33 334.105 489.491 344.838 519.083C347.032 525.138 347.571 531.031 342.663 536.727H320.514L320.568 536.71Z" stroke="white" stroke-miterlimit="10"/>
<path d="M-22.7955 173.314C-12.1884 170.645 -3.9365 166.346 1.25917 160.005C22.3295 134.3 57.0092 116.763 94.5834 100.857C145.066 79.4867 136.49 48.8738 94.4216 27.7367C79.7694 20.3746 63.679 14.123 49.1168 6.68921C24.9902 -5.63478 17.4394 -11.2952 28.8915 -35.6387H69.5039C70.7265 -34.7789 72.6142 -33.9549 72.8119 -32.9697C76.8929 -11.2415 98.5745 3.8769 122.449 18.4758C133.236 25.0677 142.513 32.7165 149.632 41.2071C173.004 69.0973 168.491 90.0015 129.659 110.046C98.3588 126.203 74.4839 145.173 56.2541 167.385C44.1728 182.127 24.5408 192.212 -0.322902 198.32C-7.63998 200.111 -15.3526 202.261 -22.8135 198.266V173.278L-22.7955 173.314Z" stroke="white" stroke-miterlimit="10"/>
<path d="M-22.7959 461.763C13.34 458.503 50.3389 456.389 83.904 466.295C133.937 481.073 186.397 494.4 220.286 523.866C224.87 527.843 228.106 532.411 231.953 536.71H195.026C161.677 522.021 123.761 512.008 89.8907 497.911C60.3167 485.605 28.1719 480.213 -7.28082 481.986C-12.8181 482.273 -18.3373 482.649 -22.7959 479.926V461.763Z" stroke="white" stroke-miterlimit="10"/>
<path d="M1295.27 536.71C1290.04 525.353 1278.48 515.787 1271.46 504.968C1258.66 485.246 1248.88 465.291 1258.61 443.599C1263.57 432.547 1275.37 426.134 1291.78 422.928C1324.09 416.622 1354.63 408.203 1383.45 397.223C1404 389.395 1426.81 385.185 1450.33 382.266V395.897C1446.77 397.993 1443.14 400.035 1438.28 400.967C1400.28 408.239 1368.8 423.268 1333.96 434.284C1288.17 448.758 1280.24 471.185 1298.66 502.657C1303.23 510.449 1310.75 517.507 1316.25 525.084C1318.94 528.792 1322.74 532.625 1317.42 536.71H1295.27Z" stroke="white" stroke-miterlimit="10"/>
<path d="M634.393 536.71C640.775 513.083 660.263 501.833 698.215 498.036C734.908 494.382 772.141 494.024 808.331 496.478C855.074 499.648 899.839 495.851 944.731 490.011C1009.25 481.61 1050.05 499.362 1077.44 536.71H1051.59C1043.92 533.467 1038.09 529.186 1032.73 524.529C1014.13 508.318 988.417 500.365 956.578 503.965C904.855 509.805 852.809 507.978 800.834 508.318C789.184 508.39 777.534 508.3 765.885 508.336C724.068 508.479 684.893 512.384 660.227 536.728H634.375L634.393 536.71Z" stroke="white" stroke-miterlimit="10"/>
<path d="M-22.7955 80.1857C-9.76139 73.8266 1.92436 66.7511 11.8483 58.4575C22.743 49.3578 35.5973 42.1389 56.4339 43.8048C70.7444 44.9513 80.2009 49.6623 85.7921 57.4185C91.3653 65.1748 85.4325 71.1755 76.9828 76.8002C70.0613 81.4037 61.5756 84.5026 52.227 86.3297C24.379 91.8111 -0.592576 100.338 -22.8135 111.981V80.1857H-22.7955Z" stroke="white" stroke-miterlimit="10"/>
<path d="M-22.7959 361.828C1.07898 362.742 24.2707 365.303 45.4848 372.63C58.0515 376.964 66.645 383.001 65.6383 392.387C64.6674 401.559 54.0963 405.965 41.5117 408.831C20.783 413.542 -1.36603 413.775 -22.7959 416.337V361.828Z" stroke="white" stroke-miterlimit="10"/>
<path d="M1369.12 536.71H1350.66C1332.66 521.914 1321.25 505.219 1316.12 487.217C1311.82 472.063 1322.67 459.542 1341.56 450.352C1367.7 437.634 1396.5 427.442 1427.86 420.205C1435.42 418.468 1443.15 416.82 1450.35 420.868V434.5C1445.38 438.62 1438.1 440.554 1430.75 442.489C1413.29 447.074 1396.3 452.287 1380.43 458.7C1354.99 468.964 1348.23 480.553 1356.73 498.43C1360.51 506.384 1365.56 514.068 1370.11 521.86C1372.99 526.786 1376.28 531.927 1369.14 536.71H1369.12Z" stroke="white" stroke-miterlimit="10"/>
<path d="M1420.81 536.71H1391.27C1375.77 520.66 1368.94 502.926 1372.88 484.817C1376.98 465.901 1423.94 447.648 1450.35 452.681V477.669C1447.16 480.41 1445.47 483.76 1441.07 485.999C1427.12 493.11 1423.74 502.729 1423.14 513.298C1422.7 521.108 1426.42 529.097 1420.83 536.71H1420.81Z" stroke="white" stroke-miterlimit="10"/>
<path d="M1450.35 98.3667C1434.51 79.3971 1434.51 65.4789 1450.35 55.2148V98.3667Z" stroke="white" stroke-miterlimit="10"/>
<path d="M63.4451 332.45C47.7323 332.236 31.1205 329.369 16.774 323.297C2.4275 317.207 3.48821 310.113 18.7516 304.883C36.6937 298.739 55.6066 296.965 74.969 302.303C89.4953 306.316 98.9338 316.705 94.7449 324.408C89.8729 333.382 76.8208 331.967 63.4451 332.45Z" stroke="white" stroke-miterlimit="10"/>
<path d="M1339.22 33.5047C1336.36 39.6488 1334.78 46.384 1329.03 52.3669C1305.24 77.1582 1285.95 103.114 1274.27 131.147C1261.22 162.459 1224.7 175.929 1175.51 180.192C1145.44 182.808 1117.01 182.861 1093.05 169.069C1048.28 143.292 1042.46 118.25 1088.9 90.8614C1109.66 78.6091 1130.59 66.4105 1151.17 54.0328C1166.45 44.8435 1183.86 37.8934 1204.21 34.3825C1234.9 29.0982 1265.57 23.8677 1295.91 17.8131C1319.18 13.1737 1339.74 21.0195 1339.22 33.5047Z" stroke="white" stroke-miterlimit="10"/>
<path d="M928.515 248.423C942.322 247.133 955.536 249.497 968.516 251.45C1004 256.77 1017.63 275.113 1005.03 300.8C997.622 315.918 983.168 328.278 963.068 338.381C937.989 350.973 916.505 366.432 886.518 375.084C862.805 381.926 833.896 378.505 814.12 365.286C797.293 354.036 782.712 341.569 794.129 324.624C797.041 320.307 801.338 316.742 806.893 313.679C827.244 302.43 843.047 289.156 855.452 274.145C870.517 255.928 894.446 246.47 928.533 248.458L928.515 248.423Z" stroke="white" stroke-miterlimit="10"/>
<path d="M412.885 75.098C418.62 54.3013 422.288 28.7398 436.203 4.52168C445.587 -11.8148 465.543 -17.4573 493.049 -13.5881C504.519 -11.976 515.324 -9.4861 525.464 -6.02894C581.519 13.084 565.123 61.3231 522.3 78.2865C499.414 87.3503 474.262 93.0287 447.87 96.862C419.735 100.946 412.831 97.5964 412.885 75.098Z" stroke="white" stroke-miterlimit="10"/>
<path d="M1226.36 55.1972C1256.83 55.1793 1265.14 59.6575 1261.63 77.7494C1257.66 98.2058 1254.82 119.128 1238.98 137.883C1223.68 155.992 1197.27 162.781 1165.56 161.814C1135.01 160.9 1109.27 153.61 1095.37 135.805C1085.82 123.588 1094.4 112.858 1107.81 103.759C1128.43 89.7868 1150.98 76.9791 1174.9 65.1567C1189.86 57.7587 1207.37 54.9285 1226.38 55.1793L1226.36 55.1972Z" stroke="white" stroke-miterlimit="10"/>
<path d="M970.17 297.825C968.084 306.405 964.201 313.857 955.23 319.911C936.982 332.182 916.811 343.108 894.158 352.19C887.003 355.056 879.147 357.116 870.319 357.743C857.825 358.621 847.397 356.955 839.739 350.399C831.972 343.753 831.415 336.642 839.289 330.426C859.515 314.466 879.56 298.344 901.907 283.548C913.341 275.989 930.097 272.854 947.499 278.031C961.396 282.169 968.138 289.334 970.188 297.843L970.17 297.825Z" stroke="white" stroke-miterlimit="10"/>
<path d="M484.096 52.9226C472.356 53.7466 467.772 49.8416 468.149 42.2466C468.725 31.0332 480.392 23.259 497.076 23.4023C509.715 23.5098 518.865 26.3938 519.477 34.8665C520.106 43.6796 502.038 52.9405 484.096 52.9226Z" stroke="white" stroke-miterlimit="10"/>
<path d="M1199.05 112.016C1198.49 119.396 1184.79 128.101 1174.96 127.421C1165.38 126.758 1159.37 123.104 1159.51 116.942C1159.66 110.547 1174.33 102.612 1184.72 103.149C1194.03 103.633 1198.54 107.161 1199.05 112.016Z" stroke="white" stroke-miterlimit="10"/>
</g>
<defs>
<clipPath id="clip0_1222_22">
<rect width="1440" height="488" fill="white"/>
</clipPath>
</defs>
</svg>
